<?xml version="1.0" encoding="UTF-8"?>
<svg id="Ebene_1" xmlns="http://www.w3.org/2000/svg" width="1202.8" height="402.2" version="1.1" viewBox="0 0 1202.8 402.2">
  <!-- Generator: Adobe Illustrator 30.5.1, SVG Export Plug-In . SVG Version: 2.1.4 Build 3)  -->
  <path d="M747.9,14.9v376.7c0,4.7-2.2,7.9-5.5,8.3-3.7.4-7.5-2-7.5-6.6V9.2c0-3.9,3-7,6.7-7l202.3.3,251.6.2c3.7,0,7.2,2.7,7.3,5.4,0,3.1-2.6,5.8-6.3,6.7h-448.6Z" style="fill: #b2cdff;"/>
  <path d="M825.5,91.7l-.5,64.3h79.3c3.5,0,6.8,2.9,7,6.1.2,3.4-3.1,6.8-7.1,6.8h-85.9c-3.2,0-6.4-4.4-6.4-7.4v-74.9c0-3.2,2.8-7.4,6.6-7.4h204.6c2.9,0,6.9,2.8,6.9,6.1v307.8c0,3.5-3.4,6.4-5.8,6.5-3,.1-6.7-2.4-6.7-6.6V92.4l-191.9-.6h0Z" style="fill: #b2cdff;"/>
  <g>
    <path d="M132.2,323.7c-42.4,5.4-84.1-6.5-118.5-29.6-3.2-2.1-4.3-6.5-2.6-9.9,1.3-2.4,6.2-3.1,9.5-.9,27.4,17.5,57.9,28,90.6,29.6,20.1,1,45.9-7,47.4-28.9.7-10.4-4.3-22.5-14.5-27.9-32.5-17.3-62.1-22.1-95.3-47.1-18.6-13.9-33.2-31.9-39.5-54.6-7.9-28.8-5.3-59.1,6.9-86.4C28.9,39.4,52.6,18.7,82.1,8.3c45.8-16.2,89.4-6.2,134.3,8.2,2.8.9,5,5.2,4.2,7.9-.8,3-5.3,4.7-8.9,3.5-46.1-15-102.5-26.6-145.9,1.9C32,51.9,14.1,91.5,17.8,131.7c2.7,28.8,17.6,52.8,40.7,69.6,33.1,24,58.6,26.5,90.2,44,19.2,10.6,28.5,33.7,18.5,53.9-6.3,12.6-19.6,22.6-35,24.6h0Z" style="fill: #b2cdff;"/>
    <path d="M176.4,391.4c-56.3,21.7-122.9,8-174.3-18-2.1-1-2.6-6.4-1.5-8s5.5-3.5,7.3-2.6c46.7,23.1,101.3,36.2,152.3,21.8,37.3-10.5,64.2-38.6,73.7-75.9s-3.1-77.8-34.3-103.1c-52.9-42.9-113.3-37.6-116.8-81.5-1.2-15.2,5.2-28.9,18-37.7,26.3-18,76.6-4.2,104.9,7.3,3.5,1.4,5.8,5.3,5,8.6-.7,2.6-5.7,4.6-8.8,3.3-25.8-10.1-80.6-27.7-101-2.7-5.9,7.3-7,16.5-4.4,25.4,2.2,7.6,8.9,15.4,17.5,19.2l46.1,20.1c54.2,23.6,94.2,60.8,88.9,124.8-3.7,44.9-29.6,82.4-72.5,99h0Z" style="fill: #b2cdff;"/>
  </g>
  <path d="M477.4,245.7h-102.8c0-.1,0,146.1,0,146.1-.3,4.1-2.6,7.5-5.8,7.8-4.4.4-7.4-2.9-7.4-7.8v-152.5c0-2.8,4-6.2,6.6-6.2h114.5c3.5,0,7.5,2.7,7.5,6.4v153.8c0,2.8-3.3,6.3-5.4,6.4-3.2.2-6.6-2.4-7.1-6.2v-147.8h-.1Z" style="fill: #b2cdff;"/>
  <path d="M489.9,7.8v153.4c0,4.4-3.4,7.8-7.8,7.8h-114c-3.4,0-6.8-4.1-6.8-7.6V9c0-3.1,3.5-6.7,5.8-6.7,3.6,0,6.8,2.7,7.5,6.7v147h102.8c0,.1,0-147,0-147,.6-3.6,2.9-6.6,5.7-6.9,2.3-.2,6.9,2.9,6.9,5.7h-.1Z" style="fill: #b2cdff;"/>
  <path d="M619.1,392c0,4.9-2.9,7.5-5.1,7.6-3.5.3-7.4-1.8-7.4-6.4V9.4c0-3.9,2.9-7.1,5.6-7.1s6.9,2.7,6.9,7.2v382.5h0Z" style="fill: #b2cdff;"/>
  <path d="M696.2,392.1c0,5.3-3,7.5-5.9,7.6s-6.7-2.5-6.7-6.7V9.5c0-3.6,2.9-6.8,5.2-7.1,3.9-.5,7.4,2.1,7.4,6.9v382.8h0Z" style="fill: #b2cdff;"/>
  <path d="M1106.5,92.3v300.9c0,3.5-3.5,6.6-6.1,6.6s-5.9-2.9-5.9-6.5V85.6c0-3.5,4-6.2,6.8-6.2h94.2c3.1,0,7,2.8,7.3,5.1.4,4.1-2.6,7.6-6.9,7.8h-89.4Z" style="fill: #b2cdff;"/>
  <path d="M297.3,392.2c0,5.5-3.4,7.6-6.4,7.6s-5.9-2.6-5.9-6.4V9.3c0-4.3,2.9-7,6-7.1,2.8,0,6.4,2.7,6.4,6.9v383h-.1Z" style="fill: #b2cdff;"/>
  <path d="M566.9,392.2c0,5.4-3.2,7.4-6,7.5-2.7.2-6.3-2.5-6.3-6.5V9.2c0-3.6,2.6-6.3,4.9-6.8s7.4,1.6,7.4,5.5v384.4h0Z" style="fill: #b2cdff;"/>
  <path d="M825,246.1v145.7c0,4.4-2.3,7.8-6.3,8.1-3,.2-6.8-2.7-6.8-6.6v-153.8c0-2.6,3.5-6.4,6-6.4h86.4c3.3,0,6.8,2.9,7,5.3.3,4.5-2.4,7.6-7,7.6h-79.3Z" style="fill: #b2cdff;"/>
</svg>