<?xml version="1.0" encoding="UTF-8"?>
<svg id="a" xmlns="http://www.w3.org/2000/svg" width="159.5" height="495" version="1.1" viewBox="0 0 159.5 495">
  <!-- Generator: Adobe Illustrator 30.4.0, SVG Export Plug-In . SVG Version: 2.1.4 Build 226)  -->
  <path d="M19,458.3c-4.9,1-8.5,5.8-8.5,10.8s5.9,12.4,16.6,12.4,16.9-5.2,16.9-12.5-2.3-9.4-8.5-11.1v-12.7c14.1,3.1,18.8,13.8,18.8,24.5,0,15.5-11.4,25.4-27,25.4S.2,484.5.2,469s6-21.7,18.8-23.4v12.7h0Z" style="fill: #12120d;"/>
  <path d="M39.1,439.6c-12.2,0-15.8-13.7-18.2-34h-.9c-8,0-10.8,4.3-10.8,9.7s2.7,9.3,8.4,9.6v12.4c-10.1-1-17.6-9.5-17.6-22.7s5.3-22.3,22.8-22.3,8.5.2,13.2.2c8.2,0,12.8-.6,17.1-1.5v12.2c-1.6.4-3.9.7-6.4.9,5.4,3.6,7.7,9.1,7.7,16.9,0,9.8-5.9,18.5-15.3,18.6h0ZM38.4,425.9c3.7,0,6.8-3,6.8-8.9s-4.5-11.8-12-11.8h-3.8c1.5,14.7,3.3,20.7,9,20.7h0Z" style="fill: #12120d;"/>
  <path d="M1.3,351v-13.2l51.7,18.6v13.9L1.3,389.2v-13.9l38.2-12.1-38.2-12.2Z" style="fill: #12120d;"/>
  <path d="M44,310.5c0-4-1.4-8.2-6-10.9v-13.6c7.7,2.8,16.2,10.4,16.2,24.4s-12.4,26.3-27.3,26.3S.2,326.1.2,310.8s12.4-25.9,30.6-25.4v38.1c8.9-.6,13.2-6.7,13.2-13h0ZM21.7,298.9c-8.7.3-11.8,6.4-11.8,12s3.2,11.4,11.8,12.5v-24.5Z" style="fill: #12120d;"/>
  <path d="M47.8,228.8c16.9,0,23.2,9.5,23.2,25.4s-3.9,20.8-16,22.6v-12.6c4.3-1.1,6.3-4.6,6.3-10.7s-3.3-11.5-11-11.5h-6.9c5.7,3.4,7.8,9.4,7.8,14.8,0,12.8-10.5,22.5-25.6,22.5S.2,269.8.2,256.8s3.4-12.5,7.9-14.8H1.3v-13.2h46.5ZM10.3,253.4c0,6.8,6.8,11.9,15.5,11.9s15.4-5.1,15.4-11.9-6.3-11.9-15.5-11.9-15.4,4.5-15.4,11.9Z" style="fill: #12120d;"/>
  <path d="M.2,188.5c0-12.4,7.6-17.9,20.3-17.9h32.5v13.3h-29.7c-6.7,0-12.5,1.4-12.5,8.9s7.1,10.7,15.3,10.7h26.9v13.3H1.3v-13.3h6.8c-5.1-2.9-7.9-8.6-7.9-15H.2Z" style="fill: #12120d;"/>
  <path d="M100.9,478.4v13.3h-12.3v-13.3h12.3ZM158.3,478.4v13.3h-51.7v-13.3h51.7Z" style="fill: #12120d;"/>
  <path d="M131.4,421.7h26.9v13.3h-30.1c-5.7,0-12.1.5-12.1,8.3s7.4,10.3,15.3,10.3h26.9v13.3h-51.7v-13.3h6.8c-5.1-2.9-8-8.2-8-14.4,0-8.8,4.7-12.7,8.5-14.7-5.8-4-8.5-9.2-8.5-17,0-13,8.1-17.5,20.3-17.5h32.6v13.3h-30.1c-5.7,0-12.1.5-12.1,8.3,0,8.7,7.4,10.1,15.3,10.1h0Z" style="fill: #12120d;"/>
  <path d="M131.4,333.7h26.9v13.3h-30.1c-5.7,0-12.1.5-12.1,8.3s7.4,10.3,15.3,10.3h26.9v13.3h-51.7v-13.3h6.8c-5.1-2.9-8-8.2-8-14.4,0-8.8,4.7-12.7,8.5-14.7-5.8-4-8.5-9.2-8.5-17,0-13,8.1-17.5,20.3-17.5h32.6v13.3h-30.1c-5.7,0-12.1.5-12.1,8.3,0,8.7,7.4,10.1,15.3,10.1h0Z" style="fill: #12120d;"/>
  <path d="M105.4,268.6c0-13.1,8.9-25.9,27.1-25.9s27,12.9,27,25.9-8.8,25.9-27,25.9-27.1-12.8-27.1-25.9ZM149.1,268.6c0-7.3-5.9-12.5-16.6-12.5s-16.7,5.2-16.7,12.5,5.9,12.5,16.7,12.5,16.6-5.2,16.6-12.5Z" style="fill: #12120d;"/>
  <path d="M88.6,235v-13.3h24.6c-4.8-2.8-7.8-8.4-7.8-14.9,0-12.5,10.8-22.5,27-22.5s27.1,10.2,27.1,22.5-2.1,11.6-7.8,14.9h6.5v13.3h-69.6ZM115.6,210.1c0,7.3,6.4,12.1,16.8,12.1s16.9-4.8,16.9-12.1-6.7-11.8-16.8-11.8-16.9,5-16.9,11.8Z" style="fill: #12120d;"/>
  <path d="M100.9,163.1v13.3h-12.3v-13.3h12.3ZM158.3,163.1v13.3h-51.7v-13.3h51.7Z" style="fill: #12120d;"/>
  <path d="M158.3,151.2h-69.7v-13.3h69.7v13.3h0Z" style="fill: #12120d;"/>
  <path d="M100.9,112.7v13.3h-12.3v-13.3h12.3ZM158.3,112.7v13.3h-51.7v-13.3h51.7Z" style="fill: #12120d;"/>
  <path d="M149.2,78.7c0-4-1.4-8.2-6-10.9v-13.6c7.7,2.8,16.2,10.4,16.2,24.4s-12.4,26.3-27.3,26.3-26.7-10.6-26.7-25.9,12.4-25.9,30.6-25.4v38.1c8.9-.6,13.2-6.8,13.2-13h0ZM126.9,67c-8.7.3-11.8,6.4-11.8,12s3.2,11.4,11.8,12.5v-24.5Z" style="fill: #12120d;"/>
  <path d="M105.4,17.9c0-12.4,7.6-17.9,20.3-17.9h32.6v13.3h-29.7c-6.7,0-12.5,1.4-12.5,8.9s7.1,10.7,15.3,10.7h26.9v13.3h-51.7v-13.3h6.8c-5.2-3-8-8.7-8-15h0Z" style="fill: #12120d;"/>
</svg>