<svg xmlns="http://www.w3.org/2000/svg" width="512" height="512" viewBox="0 0 512 512" fill="none"><metadata><rdf:RDF xmlns:rdf="http://www.w3.org/1999/02/22-rdf-syntax-ns#" xmlns:dc="http://purl.org/dc/elements/1.1/"><rdf:Description><dc:creator>RealFaviconGenerator</dc:creator><dc:source>https://realfavicongenerator.net</dc:source></rdf:Description></rdf:RDF></metadata><path d="M314.45 181.957V332.286C314.45 334.162 313.572 335.439 312.255 335.598C310.778 335.758 309.262 334.8 309.262 332.964V179.682C309.262 178.126 310.459 176.889 311.936 176.889L392.667 177.009L493.072 177.088C494.549 177.088 495.946 178.166 495.986 179.243C495.986 180.481 494.948 181.558 493.472 181.917H314.45V181.957Z" fill="#48261D"></path><path d="M345.417 212.606L345.218 238.266H376.864C378.261 238.266 379.578 239.423 379.657 240.7C379.737 242.057 378.42 243.414 376.824 243.414H342.544C341.267 243.414 339.99 241.658 339.99 240.46V210.57C339.99 209.293 341.107 207.617 342.624 207.617H424.273C425.431 207.617 427.027 208.735 427.027 210.052V332.885C427.027 334.281 425.67 335.439 424.712 335.479C423.515 335.518 422.038 334.521 422.038 332.845V212.885L345.457 212.645L345.417 212.606Z" fill="#48261D"></path><path d="M68.7437 305.189C51.8232 307.344 35.1821 302.595 21.4541 293.377C20.1771 292.539 19.7382 290.783 20.4166 289.426C20.9354 288.468 22.8908 288.189 24.2077 289.067C35.1422 296.051 47.3137 300.241 60.3633 300.879C68.3845 301.278 78.6805 298.086 79.2791 289.346C79.5584 285.196 77.5631 280.367 73.4926 278.212C60.5229 271.308 48.7105 269.393 35.4614 259.416C28.0388 253.869 22.2124 246.686 19.6982 237.627C16.5456 226.134 17.5832 214.042 22.4518 203.148C27.52 191.734 36.9779 183.474 48.7504 179.323C67.0277 172.858 84.427 176.849 102.345 182.596C103.463 182.955 104.341 184.671 104.021 185.748C103.702 186.945 101.906 187.624 100.47 187.145C82.0725 181.159 59.5651 176.53 42.2456 187.903C28.7571 196.723 21.6138 212.526 23.0903 228.568C24.1678 240.061 30.1139 249.639 39.3324 256.343C52.5415 265.921 62.7178 266.919 75.3283 273.902C82.9904 278.132 86.7017 287.351 82.7111 295.412C80.1969 300.44 74.8893 304.431 68.7437 305.229V305.189Z" fill="#48261D"></path><path d="M86.3825 332.206C63.915 340.866 37.337 335.399 16.8249 325.023C15.9869 324.624 15.7874 322.469 16.2263 321.83C16.6653 321.192 18.4212 320.434 19.1395 320.793C37.776 330.011 59.5651 335.239 79.9176 329.493C94.8028 325.302 105.538 314.089 109.329 299.203C113.12 284.318 108.092 268.156 95.6409 258.059C74.5302 240.939 50.4265 243.054 49.0297 225.535C48.5508 219.47 51.1049 214.002 56.2129 210.491C66.7084 203.307 86.7815 208.814 98.0752 213.404C99.4719 213.962 100.39 215.519 100.071 216.836C99.7912 217.873 97.7958 218.671 96.5587 218.153C86.2628 214.122 64.3938 207.098 56.2529 217.075C53.8984 219.988 53.4594 223.66 54.497 227.211C55.3749 230.244 58.0487 233.357 61.4806 234.874L79.8777 242.895C101.507 252.313 117.47 267.158 115.355 292.699C113.878 310.617 103.542 325.582 86.4224 332.206H86.3825Z" fill="#48261D"></path><path d="M206.502 274.062H165.478C165.478 274.022 165.478 332.366 165.478 332.366C165.358 334.002 164.44 335.359 163.163 335.478C161.407 335.638 160.21 334.321 160.21 332.366V271.508C160.21 270.391 161.806 269.034 162.844 269.034H208.537C209.934 269.034 211.53 270.111 211.53 271.588V332.964C211.53 334.082 210.213 335.478 209.375 335.518C208.098 335.598 206.741 334.561 206.542 333.044V274.062H206.502Z" fill="#48261D"></path><path d="M211.49 179.124V240.341C211.49 242.097 210.133 243.454 208.378 243.454H162.884C161.527 243.454 160.17 241.817 160.17 240.421V179.603C160.17 178.366 161.567 176.929 162.485 176.929C163.921 176.929 165.198 178.006 165.478 179.603V238.266H206.502C206.502 238.306 206.502 179.603 206.502 179.603C206.741 178.166 207.659 176.969 208.777 176.849C209.694 176.769 211.53 178.006 211.53 179.124H211.49Z" fill="#48261D"></path><path d="M263.05 332.446C263.05 334.401 261.893 335.439 261.015 335.479C259.618 335.598 258.061 334.76 258.061 332.925V179.762C258.061 178.206 259.219 176.929 260.296 176.929C261.374 176.929 263.05 178.006 263.05 179.802V332.446Z" fill="#48261D"></path><path d="M293.818 332.486C293.818 334.601 292.621 335.479 291.463 335.519C290.306 335.558 288.79 334.521 288.79 332.845V179.802C288.79 178.366 289.947 177.089 290.865 176.969C292.421 176.769 293.818 177.807 293.818 179.722V332.486Z" fill="#48261D"></path><path d="M457.555 212.845V332.925C457.555 334.321 456.159 335.558 455.121 335.558C454.084 335.558 452.767 334.401 452.767 332.964V210.171C452.767 208.775 454.363 207.697 455.48 207.697H493.073C494.31 207.697 495.866 208.814 495.986 209.732C496.145 211.368 494.948 212.765 493.232 212.845H457.555Z" fill="#48261D"></path><path d="M134.63 332.525C134.63 334.72 133.273 335.558 132.076 335.558C130.879 335.558 129.721 334.521 129.721 333.004V179.722C129.721 178.006 130.879 176.929 132.116 176.889C133.233 176.889 134.67 177.966 134.67 179.642V332.485H134.63V332.525Z" fill="#48261D"></path><path d="M242.218 332.525C242.218 334.68 240.941 335.479 239.824 335.518C238.747 335.598 237.31 334.521 237.31 332.924V179.682C237.31 178.246 238.348 177.168 239.265 176.969C240.183 176.769 242.218 177.607 242.218 179.164V332.565V332.525Z" fill="#48261D"></path><path d="M345.218 274.222V332.366C345.218 334.122 344.3 335.478 342.704 335.598C341.507 335.678 339.99 334.521 339.99 332.964V271.588C339.99 270.55 341.387 269.034 342.385 269.034H376.864C378.181 269.034 379.578 270.191 379.657 271.149C379.777 272.945 378.7 274.182 376.864 274.182H345.218V274.222Z" fill="#48261D"></path><style>@media (prefers-color-scheme: light) { :root { filter: none; } }
@media (prefers-color-scheme: dark) { :root { filter: invert(100%); } }
</style></svg>