<svg width="27" height="27" viewBox="0 0 27 27" fill="none" xmlns="http://www.w3.org/2000/svg">
<path d="M20.2948 4.57762C19.9809 4.57762 19.6739 4.67066 19.4128 4.84515C19.1518 5.01964 18.9483 5.26759 18.828 5.55761C18.7079 5.84775 18.6766 6.16691 18.7378 6.47494C18.7991 6.78285 18.9502 7.06579 19.1723 7.28775C19.3942 7.50983 19.6772 7.66102 19.9851 7.72222C20.2931 7.78354 20.6123 7.75215 20.9024 7.63189C21.1925 7.51174 21.4404 7.30823 21.6148 7.04723C21.7892 6.78611 21.8824 6.47921 21.8824 6.16522C21.8824 5.74414 21.7152 5.34026 21.4174 5.04259C21.1197 4.7448 20.716 4.57762 20.2948 4.57762ZM26.3806 7.77926C26.3549 6.6816 26.1494 5.59552 25.7721 4.56435C25.4356 3.68212 24.9121 2.88315 24.2373 2.22266C23.5822 1.54451 22.7816 1.0242 21.8956 0.701213C20.8673 0.312413 19.7799 0.10215 18.6807 0.079425C17.2784 1.49012e-08 16.8285 0 13.23 0C9.63146 0 9.18158 1.49012e-08 7.77926 0.079425C6.68003 0.10215 5.59282 0.312413 4.56435 0.701213C3.68021 1.02746 2.88011 1.54732 2.22266 2.22266C1.54451 2.87775 1.0242 3.67852 0.701213 4.56435C0.312413 5.59282 0.10215 6.68003 0.079425 7.77926C1.49012e-08 9.18158 0 9.63146 0 13.23C0 16.8285 1.49012e-08 17.2784 0.079425 18.6807C0.10215 19.7799 0.312413 20.8673 0.701213 21.8956C1.0242 22.7816 1.54451 23.5822 2.22266 24.2373C2.88011 24.9127 3.68021 25.4325 4.56435 25.7588C5.59282 26.1475 6.68003 26.3579 7.77926 26.3806C9.18158 26.46 9.63146 26.46 13.23 26.46C16.8285 26.46 17.2784 26.46 18.6807 26.3806C19.7799 26.3579 20.8673 26.1475 21.8956 25.7588C22.7816 25.4357 23.5822 24.9155 24.2373 24.2373C24.915 23.5793 25.4391 22.7797 25.7721 21.8956C26.1494 20.8645 26.3549 19.7785 26.3806 18.6807C26.3806 17.2784 26.46 16.8285 26.46 13.23C26.46 9.63146 26.46 9.18158 26.3806 7.77926ZM23.9992 18.522C23.9896 19.3618 23.8375 20.1939 23.5494 20.9828C23.3381 21.5586 22.9989 22.0788 22.5571 22.5043C22.128 22.9415 21.6088 23.2801 21.0357 23.4965C20.2469 23.7846 19.4148 23.9366 18.5749 23.9463C17.2519 24.0125 16.7624 24.0257 13.2829 24.0257C9.80336 24.0257 9.31388 24.0257 7.99088 23.9463C7.11889 23.9626 6.25061 23.8284 5.4243 23.5494C4.87631 23.322 4.38098 22.9842 3.969 22.5571C3.52991 22.1321 3.19478 21.6115 2.99003 21.0357C2.66693 20.2356 2.48783 19.3844 2.46083 18.522C2.46083 17.199 2.3814 16.7095 2.3814 13.23C2.3814 9.75049 2.3814 9.261 2.46083 7.938C2.46668 7.07951 2.62339 6.22867 2.92388 5.4243C3.15675 4.86585 3.51427 4.36815 3.969 3.969C4.37096 3.51416 4.86765 3.15281 5.4243 2.9106C6.2307 2.61956 7.08064 2.46746 7.938 2.46083C9.261 2.46083 9.75049 2.3814 13.23 2.3814C16.7095 2.3814 17.199 2.3814 18.522 2.46083C19.3618 2.47039 20.1939 2.62249 20.9828 2.9106C21.5839 3.13369 22.1236 3.4965 22.5571 3.969C22.9907 4.37535 23.3296 4.87226 23.5494 5.4243C23.8435 6.22991 23.9957 7.08041 23.9992 7.938C24.0653 9.261 24.0786 9.75049 24.0786 13.23C24.0786 16.7095 24.0653 17.199 23.9992 18.522ZM13.23 6.44299C11.8882 6.44569 10.5774 6.84596 9.46294 7.5933C8.34863 8.34064 7.4808 9.40151 6.96904 10.6419C6.45739 11.8823 6.32486 13.2465 6.58822 14.5621C6.8517 15.8778 7.49914 17.0859 8.44875 18.0339C9.39847 18.9817 10.6079 19.6268 11.9241 19.8875C13.2402 20.1484 14.6042 20.0132 15.8436 19.4991C17.083 18.9851 18.1422 18.1151 18.8873 16.9992C19.6326 15.8834 20.0303 14.5718 20.0303 13.23C20.032 12.3371 19.8572 11.4527 19.5158 10.6277C19.1746 9.80258 18.6737 9.0531 18.0416 8.42231C17.4096 7.79153 16.6591 7.29203 15.8335 6.95228C15.0076 6.61264 14.1229 6.4395 13.23 6.44299ZM13.23 17.6356C12.3587 17.6356 11.507 17.3772 10.7825 16.8931C10.058 16.409 9.4932 15.721 9.15975 14.9159C8.8263 14.111 8.73911 13.2252 8.9091 12.3705C9.07909 11.516 9.4986 10.7308 10.1148 10.1148C10.7308 9.49871 11.516 9.07909 12.3705 8.9091C13.2252 8.73911 14.111 8.8263 14.9159 9.15975C15.721 9.4932 16.409 10.058 16.8931 10.7825C17.3772 11.507 17.6356 12.3587 17.6356 13.23C17.6356 13.8086 17.5216 14.3814 17.3002 14.9159C17.0788 15.4505 16.7543 15.9361 16.3452 16.3452C15.9361 16.7544 15.4505 17.0788 14.9159 17.3002C14.3814 17.5216 13.8086 17.6356 13.23 17.6356Z" fill="#FFBDC5"/>
</svg>
