<svg width="1203" height="403" viewBox="0 0 1203 403" fill="none" xmlns="http://www.w3.org/2000/svg">
<path d="M747.867 14.9276V391.628C747.867 396.328 745.667 399.528 742.367 399.928C738.667 400.328 734.867 397.928 734.867 393.328V9.2276C734.867 5.3276 737.867 2.2276 741.567 2.2276L943.867 2.5276L1195.47 2.7276C1199.17 2.7276 1202.67 5.4276 1202.77 8.1276C1202.77 11.2276 1200.17 13.9276 1196.47 14.8276H747.867V14.9276Z" fill="#B2CDFF"/>
<path d="M825.467 91.7276L824.967 156.028H904.267C907.767 156.028 911.067 158.928 911.267 162.128C911.467 165.528 908.167 168.928 904.167 168.928H818.267C815.067 168.928 811.867 164.528 811.867 161.528V86.6276C811.867 83.4276 814.667 79.2276 818.467 79.2276H1023.07C1025.97 79.2276 1029.97 82.0276 1029.97 85.3276V393.128C1029.97 396.628 1026.57 399.528 1024.17 399.628C1021.17 399.728 1017.47 397.228 1017.47 393.028V92.4276L825.567 91.8276L825.467 91.7276Z" fill="#B2CDFF"/>
<path d="M132.167 323.728C89.7672 329.128 48.0672 317.228 13.6672 294.128C10.4672 292.028 9.36722 287.628 11.0672 284.228C12.3672 281.828 17.2672 281.128 20.5672 283.328C47.9672 300.828 78.4672 311.328 111.167 312.928C131.267 313.928 157.067 305.928 158.567 284.028C159.267 273.628 154.267 261.528 144.067 256.128C111.567 238.828 81.9672 234.028 48.7672 209.028C30.1672 195.128 15.5672 177.128 9.26722 154.428C1.36722 125.628 3.96722 95.3276 16.1672 68.0276C28.8672 39.4276 52.5672 18.7276 82.0672 8.32761C127.867 -7.87239 171.467 2.12761 216.367 16.5276C219.167 17.4276 221.367 21.7276 220.567 24.4276C219.767 27.4276 215.267 29.1276 211.667 27.9276C165.567 12.9276 109.167 1.3276 65.7672 29.8276C31.9672 51.9276 14.0672 91.5276 17.7672 131.728C20.4672 160.528 35.3672 184.528 58.4672 201.328C91.5672 225.328 117.067 227.828 148.667 245.328C167.867 255.928 177.167 279.028 167.167 299.228C160.867 311.828 147.567 321.828 132.167 323.828V323.728Z" fill="#B2CDFF"/>
<path d="M176.367 391.428C120.067 413.128 53.4672 399.428 2.06719 373.428C-0.0328126 372.428 -0.532812 367.028 0.567188 365.428C1.66719 363.828 6.06719 361.928 7.86719 362.828C54.5672 385.928 109.167 399.028 160.167 384.628C197.467 374.128 224.367 346.028 233.867 308.728C243.367 271.428 230.767 230.928 199.567 205.628C146.667 162.728 86.2672 168.028 82.7672 124.128C81.5672 108.928 87.9672 95.2276 100.767 86.4276C127.067 68.4276 177.367 82.2276 205.667 93.7276C209.167 95.1276 211.467 99.0276 210.667 102.328C209.967 104.928 204.967 106.928 201.867 105.628C176.067 95.5276 121.267 77.9276 100.867 102.928C94.9672 110.228 93.8672 119.428 96.4672 128.328C98.6672 135.928 105.367 143.728 113.967 147.528L160.067 167.628C214.267 191.228 254.267 228.428 248.967 292.428C245.267 337.328 219.367 374.828 176.467 391.428H176.367Z" fill="#B2CDFF"/>
<path d="M477.367 245.728H374.567C374.567 245.628 374.567 391.828 374.567 391.828C374.267 395.928 371.967 399.328 368.767 399.628C364.367 400.028 361.367 396.728 361.367 391.828V239.328C361.367 236.528 365.367 233.128 367.967 233.128H482.467C485.967 233.128 489.967 235.828 489.967 239.528V393.328C489.967 396.128 486.667 399.628 484.567 399.728C481.367 399.928 477.967 397.328 477.467 393.528V245.728H477.367Z" fill="#B2CDFF"/>
<path d="M489.867 7.8276V161.228C489.867 165.628 486.467 169.028 482.067 169.028H368.067C364.667 169.028 361.267 164.928 361.267 161.428V9.0276C361.267 5.9276 364.767 2.3276 367.067 2.3276C370.667 2.3276 373.867 5.0276 374.567 9.0276V156.028H477.367C477.367 156.128 477.367 9.0276 477.367 9.0276C477.967 5.4276 480.267 2.4276 483.067 2.1276C485.367 1.9276 489.967 5.0276 489.967 7.8276H489.867Z" fill="#B2CDFF"/>
<path d="M619.067 392.028C619.067 396.928 616.167 399.528 613.967 399.628C610.467 399.928 606.567 397.828 606.567 393.228V9.42758C606.567 5.52758 609.467 2.32758 612.167 2.32758C614.867 2.32758 619.067 5.02758 619.067 9.52758V392.028Z" fill="#B2CDFF"/>
<path d="M696.167 392.128C696.167 397.428 693.167 399.628 690.267 399.728C687.367 399.828 683.567 397.228 683.567 393.028V9.5276C683.567 5.9276 686.467 2.7276 688.767 2.4276C692.667 1.9276 696.167 4.5276 696.167 9.3276V392.128Z" fill="#B2CDFF"/>
<path d="M1106.47 92.3276V393.228C1106.47 396.728 1102.97 399.828 1100.37 399.828C1097.77 399.828 1094.47 396.928 1094.47 393.328V85.6276C1094.47 82.1276 1098.47 79.4276 1101.27 79.4276H1195.47C1198.57 79.4276 1202.47 82.2276 1202.77 84.5276C1203.17 88.6276 1200.17 92.1276 1195.87 92.3276H1106.47Z" fill="#B2CDFF"/>
<path d="M297.267 392.228C297.267 397.728 293.867 399.828 290.867 399.828C287.867 399.828 284.967 397.228 284.967 393.428V9.3276C284.967 5.0276 287.867 2.3276 290.967 2.2276C293.767 2.2276 297.367 4.9276 297.367 9.1276V392.128H297.267V392.228Z" fill="#B2CDFF"/>
<path d="M566.867 392.228C566.867 397.628 563.667 399.628 560.867 399.728C558.167 399.928 554.567 397.228 554.567 393.228V9.22758C554.567 5.62758 557.167 2.92758 559.467 2.42758C561.767 1.92758 566.867 4.02758 566.867 7.92758V392.328V392.228Z" fill="#B2CDFF"/>
<path d="M824.967 246.128V391.828C824.967 396.228 822.667 399.628 818.667 399.928C815.667 400.128 811.867 397.228 811.867 393.328V239.528C811.867 236.928 815.367 233.128 817.867 233.128H904.267C907.567 233.128 911.067 236.028 911.267 238.428C911.567 242.928 908.867 246.028 904.267 246.028H824.967V246.128Z" fill="#B2CDFF"/>
</svg>
